<?xml version="1.0" standalone="no"?><!DOCTYPE svg PUBLIC "-//W3C//DTD SVG 1.1//EN" "http://www.w3.org/Graphics/SVG/1.1/DTD/svg11.dtd"><svg t="1592288875063" class="icon" viewBox="0 0 1024 1024" version="1.1" xmlns="http://www.w3.org/2000/svg" p-id="8089" xmlns:xlink="http://www.w3.org/1999/xlink" width="80" height="80"><defs><style type="text/css"></style></defs><path d="M512 0c-282.76736 0-512 71.63904-512 160.01024l0 128c0 88.3712 229.23264 160.01024 512 160.01024s512-71.63904 512-160.01024l0-128c0-88.3712-229.23264-160.01024-512-160.01024z" p-id="8090" fill="#4052B5"></path><path d="M512 544.01024c-282.76736 0-512-71.63904-512-160.01024l0 192c0 88.3712 229.23264 160.01024 512 160.01024s512-71.63904 512-160.01024l0-192c0 88.3712-229.23264 160.01024-512 160.01024z" p-id="8091" fill="#4052B5"></path><path d="M512 832c-282.76736 0-512-71.63904-512-160.01024l0 192c0 88.3712 229.23264 160.01024 512 160.01024s512-71.63904 512-160.01024l0-192c0 88.3712-229.23264 160.01024-512 160.01024z" p-id="8092" fill="#4052B5"></path></svg>